<mxfile host="app.diagrams.net" modified="2023-08-21T09:23:13.199Z" agent="Mozilla/5.0 (Windows NT 10.0; Win64; x64) AppleWebKit/537.36 (KHTML, like Gecko) Chrome/115.0.0.0 Safari/537.36" etag="sOXC9hBPEgC9VDL2dbLq" version="21.6.6" type="github">
  <diagram name="Page-1" id="1622d65d-c77d-c4b6-e0e7-3c11208c8684">
    <mxGraphModel dx="1434" dy="828" grid="1" gridSize="10" guides="1" tooltips="1" connect="1" arrows="1" fold="1" page="1" pageScale="1.5" pageWidth="1169" pageHeight="826" background="none" math="0" shadow="0">
      <root>
        <mxCell id="0" style=";html=1;" />
        <mxCell id="1" style=";html=1;" parent="0" />
        <mxCell id="869962fe87da545-3" value="" style="whiteSpace=wrap;html=1;rounded=0;shadow=0;dashed=0;strokeWidth=1;fontFamily=Tahoma;fontSize=10;fontColor=#FFFFFF;strokeColor=none;fillColor=#7FB61A;gradientColor=#1B622A;gradientDirection=west;" parent="1" vertex="1">
          <mxGeometry x="1360" y="210" width="240" height="180" as="geometry" />
        </mxCell>
        <mxCell id="869962fe87da545-4" value="" style="verticalLabelPosition=bottom;verticalAlign=top;html=1;strokeWidth=1;shape=mxgraph.basic.orthogonal_triangle;rounded=0;shadow=0;dashed=0;fontFamily=Tahoma;fontSize=10;fontColor=#FFFFFF;flipV=1;fillColor=#000000;strokeColor=none;opacity=50;" parent="1" vertex="1">
          <mxGeometry x="1360" y="350" width="140" height="40" as="geometry" />
        </mxCell>
        <mxCell id="869962fe87da545-6" value="" style="whiteSpace=wrap;html=1;rounded=0;shadow=0;dashed=0;strokeWidth=1;fontFamily=Tahoma;fontSize=10;fontColor=#FFFFFF;strokeColor=none;fillColor=#5398DB;gradientColor=#1247B9;gradientDirection=west;" parent="1" vertex="1">
          <mxGeometry x="1370" y="470" width="240" height="180" as="geometry" />
        </mxCell>
        <mxCell id="869962fe87da545-7" value="" style="verticalLabelPosition=bottom;verticalAlign=top;html=1;strokeWidth=1;shape=mxgraph.basic.orthogonal_triangle;rounded=0;shadow=0;dashed=0;fontFamily=Tahoma;fontSize=10;fontColor=#FFFFFF;flipV=1;fillColor=#000000;strokeColor=none;opacity=50;" parent="1" vertex="1">
          <mxGeometry x="1370" y="610" width="140" height="40" as="geometry" />
        </mxCell>
        <mxCell id="869962fe87da545-9" value="" style="whiteSpace=wrap;html=1;rounded=0;shadow=0;dashed=0;strokeWidth=1;fontFamily=Tahoma;fontSize=10;fontColor=#FFFFFF;strokeColor=none;fillColor=#8D029D;gradientColor=#65009E;gradientDirection=west;" parent="1" vertex="1">
          <mxGeometry x="1370" y="720" width="240" height="180" as="geometry" />
        </mxCell>
        <mxCell id="869962fe87da545-10" value="" style="verticalLabelPosition=bottom;verticalAlign=top;html=1;strokeWidth=1;shape=mxgraph.basic.orthogonal_triangle;rounded=0;shadow=0;dashed=0;fontFamily=Tahoma;fontSize=10;fontColor=#FFFFFF;flipV=1;fillColor=#000000;strokeColor=none;opacity=50;" parent="1" vertex="1">
          <mxGeometry x="1370" y="860" width="140" height="40" as="geometry" />
        </mxCell>
        <mxCell id="869962fe87da545-12" value="" style="whiteSpace=wrap;html=1;rounded=0;shadow=0;dashed=0;strokeWidth=1;fontFamily=Tahoma;fontSize=10;fontColor=#FFFFFF;strokeColor=none;fillColor=#F19001;gradientColor=#C23603;gradientDirection=west;" parent="1" vertex="1">
          <mxGeometry x="1370" y="970" width="240" height="180" as="geometry" />
        </mxCell>
        <mxCell id="869962fe87da545-13" value="" style="verticalLabelPosition=bottom;verticalAlign=top;html=1;strokeWidth=1;shape=mxgraph.basic.orthogonal_triangle;rounded=0;shadow=0;dashed=0;fontFamily=Tahoma;fontSize=10;fontColor=#FFFFFF;flipV=1;fillColor=#000000;strokeColor=none;opacity=50;" parent="1" vertex="1">
          <mxGeometry x="1370" y="1110" width="140" height="40" as="geometry" />
        </mxCell>
        <mxCell id="869962fe87da545-15" value="" style="whiteSpace=wrap;html=1;rounded=0;shadow=0;dashed=0;strokeWidth=1;fontFamily=Tahoma;fontSize=10;fontColor=#FFFFFF;strokeColor=none;fillColor=#EA0001;gradientColor=#AD0002;gradientDirection=west;" parent="1" vertex="1">
          <mxGeometry x="1370" y="1220" width="240" height="180" as="geometry" />
        </mxCell>
        <mxCell id="869962fe87da545-16" value="" style="verticalLabelPosition=bottom;verticalAlign=top;html=1;strokeWidth=1;shape=mxgraph.basic.orthogonal_triangle;rounded=0;shadow=0;dashed=0;fontFamily=Tahoma;fontSize=10;fontColor=#FFFFFF;flipV=1;fillColor=#000000;strokeColor=none;opacity=50;" parent="1" vertex="1">
          <mxGeometry x="1370" y="1360" width="140" height="40" as="geometry" />
        </mxCell>
        <mxCell id="869962fe87da545-2" value="" style="html=1;shadow=0;dashed=0;align=center;verticalAlign=middle;shape=mxgraph.arrows2.arrow;dy=0;dx=0;notch=30;rounded=0;strokeColor=none;strokeWidth=1;fillColor=#7FB61A;fontFamily=Tahoma;fontSize=10;fontColor=#FFFFFF;gradientColor=#1B622A;gradientDirection=east;" parent="1" vertex="1">
          <mxGeometry x="290" y="170" width="1210" height="180" as="geometry" />
        </mxCell>
        <mxCell id="869962fe87da545-8" value="" style="html=1;shadow=0;dashed=0;align=center;verticalAlign=middle;shape=mxgraph.arrows2.arrow;dy=0;dx=0;notch=30;rounded=0;strokeColor=none;strokeWidth=1;fillColor=#5398DB;fontFamily=Tahoma;fontSize=10;fontColor=#FFFFFF;gradientColor=#1247B9;gradientDirection=east;" parent="1" vertex="1">
          <mxGeometry x="300" y="430" width="1210" height="180" as="geometry" />
        </mxCell>
        <mxCell id="869962fe87da545-11" value="" style="html=1;shadow=0;dashed=0;align=center;verticalAlign=middle;shape=mxgraph.arrows2.arrow;dy=0;dx=0;notch=30;rounded=0;strokeColor=none;strokeWidth=1;fillColor=#8D029D;fontFamily=Tahoma;fontSize=10;fontColor=#FFFFFF;gradientColor=#65009E;gradientDirection=east;" parent="1" vertex="1">
          <mxGeometry x="300" y="680" width="1210" height="180" as="geometry" />
        </mxCell>
        <mxCell id="869962fe87da545-14" value="" style="html=1;shadow=0;dashed=0;align=center;verticalAlign=middle;shape=mxgraph.arrows2.arrow;dy=0;dx=0;notch=30;rounded=0;strokeColor=none;strokeWidth=1;fillColor=#F19001;fontFamily=Tahoma;fontSize=10;fontColor=#FFFFFF;gradientColor=#C23603;gradientDirection=east;" parent="1" vertex="1">
          <mxGeometry x="300" y="930" width="1210" height="180" as="geometry" />
        </mxCell>
        <mxCell id="869962fe87da545-17" value="" style="html=1;shadow=0;dashed=0;align=center;verticalAlign=middle;shape=mxgraph.arrows2.arrow;dy=0;dx=0;notch=30;rounded=0;strokeColor=none;strokeWidth=1;fillColor=#EA0001;fontFamily=Tahoma;fontSize=10;fontColor=#FFFFFF;gradientColor=#AD0002;gradientDirection=east;" parent="1" vertex="1">
          <mxGeometry x="300" y="1180" width="1210" height="180" as="geometry" />
        </mxCell>
        <mxCell id="869962fe87da545-19" value="1" style="text;html=1;strokeColor=none;fillColor=none;align=right;verticalAlign=middle;whiteSpace=wrap;rounded=0;shadow=0;dashed=0;fontFamily=Helvetica;fontSize=150;fontColor=#FFFFFF;" parent="1" vertex="1">
          <mxGeometry x="320" y="170" width="200" height="180" as="geometry" />
        </mxCell>
        <mxCell id="869962fe87da545-20" value="2" style="text;html=1;strokeColor=none;fillColor=none;align=right;verticalAlign=middle;whiteSpace=wrap;rounded=0;shadow=0;dashed=0;fontFamily=Helvetica;fontSize=150;fontColor=#FFFFFF;" parent="1" vertex="1">
          <mxGeometry x="330" y="430" width="200" height="180" as="geometry" />
        </mxCell>
        <mxCell id="869962fe87da545-21" value="3" style="text;html=1;strokeColor=none;fillColor=none;align=right;verticalAlign=middle;whiteSpace=wrap;rounded=0;shadow=0;dashed=0;fontFamily=Helvetica;fontSize=150;fontColor=#FFFFFF;" parent="1" vertex="1">
          <mxGeometry x="330" y="680" width="200" height="180" as="geometry" />
        </mxCell>
        <mxCell id="869962fe87da545-22" value="4" style="text;html=1;strokeColor=none;fillColor=none;align=right;verticalAlign=middle;whiteSpace=wrap;rounded=0;shadow=0;dashed=0;fontFamily=Helvetica;fontSize=150;fontColor=#FFFFFF;" parent="1" vertex="1">
          <mxGeometry x="330" y="930" width="200" height="180" as="geometry" />
        </mxCell>
        <mxCell id="869962fe87da545-23" value="5" style="text;html=1;strokeColor=none;fillColor=none;align=right;verticalAlign=middle;whiteSpace=wrap;rounded=0;shadow=0;dashed=0;fontFamily=Helvetica;fontSize=150;fontColor=#FFFFFF;" parent="1" vertex="1">
          <mxGeometry x="330" y="1180" width="200" height="180" as="geometry" />
        </mxCell>
        <mxCell id="869962fe87da545-24" value="" style="line;strokeWidth=4;direction=south;html=1;rounded=0;shadow=0;dashed=0;fillColor=none;gradientColor=#AD0002;fontFamily=Helvetica;fontSize=150;fontColor=#FFFFFF;align=right;strokeColor=#FFFFFF;" parent="1" vertex="1">
          <mxGeometry x="540" y="180" width="10" height="160" as="geometry" />
        </mxCell>
        <mxCell id="869962fe87da545-25" value="" style="line;strokeWidth=4;direction=south;html=1;rounded=0;shadow=0;dashed=0;fillColor=none;gradientColor=#AD0002;fontFamily=Helvetica;fontSize=150;fontColor=#FFFFFF;align=right;strokeColor=#FFFFFF;" parent="1" vertex="1">
          <mxGeometry x="540" y="440" width="10" height="160" as="geometry" />
        </mxCell>
        <mxCell id="869962fe87da545-26" value="" style="line;strokeWidth=4;direction=south;html=1;rounded=0;shadow=0;dashed=0;fillColor=none;gradientColor=#AD0002;fontFamily=Helvetica;fontSize=150;fontColor=#FFFFFF;align=right;strokeColor=#FFFFFF;" parent="1" vertex="1">
          <mxGeometry x="540" y="690" width="10" height="160" as="geometry" />
        </mxCell>
        <mxCell id="869962fe87da545-27" value="" style="line;strokeWidth=4;direction=south;html=1;rounded=0;shadow=0;dashed=0;fillColor=none;gradientColor=#AD0002;fontFamily=Helvetica;fontSize=150;fontColor=#FFFFFF;align=right;strokeColor=#FFFFFF;" parent="1" vertex="1">
          <mxGeometry x="540" y="940" width="10" height="160" as="geometry" />
        </mxCell>
        <mxCell id="869962fe87da545-28" value="" style="line;strokeWidth=4;direction=south;html=1;rounded=0;shadow=0;dashed=0;fillColor=none;gradientColor=#AD0002;fontFamily=Helvetica;fontSize=150;fontColor=#FFFFFF;align=right;strokeColor=#FFFFFF;" parent="1" vertex="1">
          <mxGeometry x="540" y="1190" width="10" height="160" as="geometry" />
        </mxCell>
        <mxCell id="869962fe87da545-29" value="&lt;h1&gt;&lt;p style=&quot;margin-top: 0pt; margin-bottom: 0pt; margin-left: 0in; direction: ltr; unicode-bidi: embed; word-break: normal;&quot;&gt;&lt;font style=&quot;font-size: 36px;&quot;&gt;前期准备&lt;/font&gt;&lt;/p&gt;&lt;/h1&gt;&lt;p style=&quot;margin-top: 0pt; margin-bottom: 0pt; margin-left: 0in; direction: ltr; unicode-bidi: embed; word-break: normal; font-size: 26px;&quot;&gt;搭建环境，下载&lt;span style=&quot;font-family: 黑体;&quot;&gt;trivy&lt;/span&gt;&lt;span style=&quot;font-family: 黑体;&quot;&gt;、&lt;/span&gt;&lt;span style=&quot;font-family: 黑体;&quot;&gt;clair&lt;/span&gt;&lt;span style=&quot;font-family: 黑体;&quot;&gt;的相关组件，将测试用的镜像&lt;/span&gt;&lt;span style=&quot;font-family: 黑体;&quot;&gt;push&lt;/span&gt;&lt;span style=&quot;font-family: 黑体;&quot;&gt;到黄区仓库中。&lt;/span&gt;&lt;/p&gt;" style="text;html=1;strokeColor=none;fillColor=none;spacing=5;spacingTop=-20;whiteSpace=wrap;overflow=hidden;rounded=0;shadow=0;dashed=0;fontFamily=Helvetica;fontSize=12;fontColor=#FFFFFF;align=left;" parent="1" vertex="1">
          <mxGeometry x="580" y="190" width="650" height="140" as="geometry" />
        </mxCell>
        <mxCell id="869962fe87da545-34" value="" style="shadow=0;dashed=0;html=1;strokeColor=none;fillColor=#FFFFFF;labelPosition=center;verticalLabelPosition=bottom;verticalAlign=top;shape=mxgraph.office.users.users;rounded=0;fontFamily=Helvetica;fontSize=12;fontColor=#FFFFFF;align=left;" parent="1" vertex="1">
          <mxGeometry x="1354.9999999999995" y="210" width="92" height="100" as="geometry" />
        </mxCell>
        <mxCell id="869962fe87da545-35" value="" style="shadow=0;dashed=0;html=1;strokeColor=none;fillColor=#FFFFFF;labelPosition=center;verticalLabelPosition=bottom;verticalAlign=top;shape=mxgraph.office.security.token;rounded=0;fontFamily=Helvetica;fontSize=12;fontColor=#FFFFFF;align=left;" parent="1" vertex="1">
          <mxGeometry x="1358.9999999999993" y="467" width="84" height="106" as="geometry" />
        </mxCell>
        <mxCell id="869962fe87da545-36" value="" style="shadow=0;dashed=0;html=1;strokeColor=none;fillColor=#FFFFFF;labelPosition=center;verticalLabelPosition=bottom;verticalAlign=top;shape=mxgraph.office.concepts.best_practices;rounded=0;fontFamily=Helvetica;fontSize=12;fontColor=#FFFFFF;align=left;" parent="1" vertex="1">
          <mxGeometry x="1352.5" y="716" width="97" height="97" as="geometry" />
        </mxCell>
        <mxCell id="869962fe87da545-37" value="" style="shadow=0;dashed=0;html=1;strokeColor=none;fillColor=#FFFFFF;labelPosition=center;verticalLabelPosition=bottom;verticalAlign=top;shape=mxgraph.office.concepts.maintenance;rounded=0;fontFamily=Helvetica;fontSize=12;fontColor=#FFFFFF;align=left;" parent="1" vertex="1">
          <mxGeometry x="1366" y="970" width="70" height="100" as="geometry" />
        </mxCell>
        <mxCell id="869962fe87da545-38" value="" style="shadow=0;dashed=0;html=1;strokeColor=none;fillColor=#FFFFFF;labelPosition=center;verticalLabelPosition=bottom;verticalAlign=top;shape=mxgraph.office.concepts.on_premises;rounded=0;fontFamily=Helvetica;fontSize=12;fontColor=#FFFFFF;align=left;" parent="1" vertex="1">
          <mxGeometry x="1381" y="1220" width="59" height="95" as="geometry" />
        </mxCell>
        <mxCell id="z2sBM01HuCee_LpHHiXx-1" value="&lt;h1&gt;&lt;p style=&quot;margin-top: 0pt; margin-bottom: 0pt; margin-left: 0in; direction: ltr; unicode-bidi: embed; word-break: normal;&quot;&gt;&lt;font style=&quot;font-size: 36px;&quot;&gt;测试数据&lt;/font&gt;&lt;/p&gt;&lt;/h1&gt;&lt;p style=&quot;margin-top: 0pt; margin-bottom: 0pt; margin-left: 0in; direction: ltr; unicode-bidi: embed; word-break: normal;&quot;&gt;&lt;span style=&quot;background-color: initial; font-size: 26px;&quot;&gt;对比各个组件扫描漏洞的报告，并根据报告结果人工验证每一个漏洞的正确性。&lt;/span&gt;&lt;/p&gt;&lt;div&gt;&lt;span style=&quot;background-color: initial;&quot;&gt;&lt;br&gt;&lt;/span&gt;&lt;/div&gt;" style="text;html=1;strokeColor=none;fillColor=none;spacing=5;spacingTop=-20;whiteSpace=wrap;overflow=hidden;rounded=0;shadow=0;dashed=0;fontFamily=Helvetica;fontSize=12;fontColor=#FFFFFF;align=left;" vertex="1" parent="1">
          <mxGeometry x="570" y="450" width="640" height="140" as="geometry" />
        </mxCell>
        <mxCell id="z2sBM01HuCee_LpHHiXx-2" value="&lt;h1&gt;&lt;p style=&quot;margin-top: 0pt; margin-bottom: 0pt; margin-left: 0in; direction: ltr; unicode-bidi: embed; word-break: normal;&quot;&gt;&lt;font style=&quot;font-size: 36px;&quot;&gt;信息收集&lt;/font&gt;&lt;/p&gt;&lt;/h1&gt;&lt;p style=&quot;margin-top: 0pt; margin-bottom: 0pt; margin-left: 0in; direction: ltr; unicode-bidi: embed; word-break: normal;&quot;&gt;&lt;font style=&quot;font-size: 26px;&quot;&gt;搜索市场情况以及其他友商提供的容器镜像扫描服务，对比我司的容器镜像漏洞扫描组件能力。&lt;/font&gt;&lt;/p&gt;&lt;div style=&quot;font-size: 24px;&quot;&gt;&lt;br&gt;&lt;/div&gt;&lt;div&gt;&lt;span style=&quot;background-color: initial;&quot;&gt;&lt;br&gt;&lt;/span&gt;&lt;/div&gt;" style="text;html=1;strokeColor=none;fillColor=none;spacing=5;spacingTop=-20;whiteSpace=wrap;overflow=hidden;rounded=0;shadow=0;dashed=0;fontFamily=Helvetica;fontSize=12;fontColor=#FFFFFF;align=left;" vertex="1" parent="1">
          <mxGeometry x="570" y="700" width="640" height="140" as="geometry" />
        </mxCell>
        <mxCell id="z2sBM01HuCee_LpHHiXx-3" value="&lt;h1&gt;&lt;p style=&quot;margin-top: 0pt; margin-bottom: 0pt; margin-left: 0in; direction: ltr; unicode-bidi: embed; word-break: normal;&quot;&gt;&lt;font style=&quot;font-size: 36px;&quot;&gt;测试数据&lt;/font&gt;&lt;/p&gt;&lt;/h1&gt;&lt;p style=&quot;margin-top: 0pt; margin-bottom: 0pt; margin-left: 0in; direction: ltr; unicode-bidi: embed; word-break: normal; font-size: 26px;&quot;&gt;&lt;font style=&quot;font-size: 26px;&quot;&gt;根据收集到的市场情况以及友商、我司和开源组件情况撰写容器镜像漏洞安全洞察分析报告&lt;/font&gt;&lt;/p&gt;&lt;div style=&quot;font-size: 26px;&quot;&gt;&lt;br&gt;&lt;/div&gt;&lt;div&gt;&lt;span style=&quot;background-color: initial;&quot;&gt;&lt;br&gt;&lt;/span&gt;&lt;/div&gt;" style="text;html=1;strokeColor=none;fillColor=none;spacing=5;spacingTop=-20;whiteSpace=wrap;overflow=hidden;rounded=0;shadow=0;dashed=0;fontFamily=Helvetica;fontSize=12;fontColor=#FFFFFF;align=left;" vertex="1" parent="1">
          <mxGeometry x="575" y="950" width="640" height="140" as="geometry" />
        </mxCell>
        <mxCell id="z2sBM01HuCee_LpHHiXx-5" value="&lt;h1 style=&quot;font-size: 26px;&quot;&gt;&lt;p style=&quot;margin-top: 0pt; margin-bottom: 0pt; margin-left: 0in; direction: ltr; unicode-bidi: embed; word-break: normal;&quot;&gt;&lt;span style=&quot;font-size: 36px;&quot;&gt;技术分享&lt;/span&gt;&lt;/p&gt;&lt;p style=&quot;margin-top: 0pt; margin-bottom: 0pt; margin-left: 0in; direction: ltr; unicode-bidi: embed; word-break: normal;&quot;&gt;邀请了可信使能与&lt;span style=&quot;font-family: 黑体;&quot;&gt;IT&lt;/span&gt;&lt;span style=&quot;font-family: 黑体;&quot;&gt;装备部安全工程与技术组专家和运营与&lt;/span&gt;&lt;span style=&quot;font-family: 黑体;&quot;&gt;SRE&lt;/span&gt;&lt;span style=&quot;font-family: 黑体;&quot;&gt;部安全运维专家完成评议分享，得到&lt;/span&gt;&lt;span style=&quot;font-family: 黑体;&quot;&gt;GTS&lt;/span&gt;&lt;span style=&quot;font-family: 黑体;&quot;&gt;安全技术首席专家的肯定评价。&lt;/span&gt;&lt;/p&gt;&lt;/h1&gt;" style="text;html=1;strokeColor=none;fillColor=none;spacing=5;spacingTop=-20;whiteSpace=wrap;overflow=hidden;rounded=0;shadow=0;dashed=0;fontFamily=Helvetica;fontSize=12;fontColor=#FFFFFF;align=left;" vertex="1" parent="1">
          <mxGeometry x="580" y="1197.5" width="640" height="140" as="geometry" />
        </mxCell>
      </root>
    </mxGraphModel>
  </diagram>
</mxfile>
